#N canvas 541 193 1411 738 10;
#X obj 17 15 ctlin;
#X obj 17 40 pack f f f;
#X obj 17 84 route 1;
#X msg 17 63 \$2 \$1;
#X obj 17 107 != 0;
#X obj 17 222 delay 2000;
#X obj 17 141 sel 0 1;
#X msg 36 186 stop;
#X obj 181 231 delay 200;
#N canvas 376 138 958 498 leds 0;
#X obj 261 169 led_driver 6;
#X obj 261 238 t a;
#X obj 329 271 spigot 0;
#X obj 374 248 tgl 15 0 empty empty empty 17 7 0 10 -262144 -1 -1 0
1;
#X msg 75 359 baud 115200;
#X obj 75 338 delay 10;
#X obj 74 267 makefilename /dev/ttyUSB%d;
#X obj 74 242 hradio 15 1 0 8 empty empty empty 0 -8 0 10 -262144 -1
-1 0;
#X msg 74 293 devicename \$1;
#X msg 292 376 close;
#X obj 74 316 bang;
#X obj 243 51 r led_cmd;
#X obj 272 203 led_driver 8;
#X obj 261 423 comport;
#X msg 74 220 0;
#X obj 74 178 loadbang;
#X obj 74 198 delay 200;
#X obj 329 296 print led_output;
#X obj 243 80 route 0 1 2;
#X obj 285 145 led_driver 5;
#X connect 0 0 1 0;
#X connect 1 0 2 0;
#X connect 1 0 13 0;
#X connect 2 0 17 0;
#X connect 3 0 2 1;
#X connect 4 0 13 0;
#X connect 5 0 4 0;
#X connect 6 0 8 0;
#X connect 7 0 6 0;
#X connect 8 0 10 0;
#X connect 8 0 13 0;
#X connect 9 0 13 0;
#X connect 10 0 5 0;
#X connect 11 0 18 0;
#X connect 12 0 1 0;
#X connect 14 0 7 0;
#X connect 15 0 16 0;
#X connect 16 0 14 0;
#X connect 18 0 0 0;
#X connect 18 1 12 0;
#X connect 18 2 19 0;
#X connect 19 0 1 0;
#X restore 18 -15 pd leds;
#X obj 20 557 s led_cmd;
#X obj 20 491 pack f f 1;
#X obj 21 415 line;
#X obj 20 437 t b f;
#X obj 81 460 hsl 128 15 0 1 0 0 empty empty empty -2 -8 0 10 -262144
-1 -1 12065 1;
#X msg 20 531 \$1 set \$3 1 \$2;
#X msg 20 463 0 \, 1;
#X obj 97 375 random 10;
#X obj 97 430 + 0.9;
#X obj 97 400 / 100;
#X obj 82 142 tgl 15 0 empty empty empty 17 7 0 10 -262144 -1 -1 0
1;
#X obj 3 181 bng 15 250 50 0 empty empty empty 17 7 0 10 -262144 -1
-1;
#X obj 181 208 bng 15 250 50 0 empty empty empty 17 7 0 10 -262144
-1 -1;
#X obj 208 80 s altar_kneel_value;
#X obj 211 37 hsl 128 15 0 1 0 0 empty empty empty -2 -8 0 10 -262144
-1 -1 0 1;
#X floatatom 208 61 5 0 0 0 - - -;
#X obj 354 36 hsl 128 15 0 1 0 0 empty empty empty -2 -8 0 10 -262144
-1 -1 12700 1;
#X floatatom 351 60 5 0 0 0 - - -;
#X msg 351 12 1;
#X obj 208 -56 loadbang;
#X obj 351 79 s altar_normal_value;
#X obj 19 267 f 1;
#X msg 21 294 \$1 10000;
#X obj 34 245 r altar_normal_value;
#X msg 181 314 \$1 5000;
#X obj 196 258 r altar_kneel_value;
#X obj 181 280 f 0;
#X msg 208 13 0.01;
#X floatatom 1134 235 3 0 0 0 - - -;
#X floatatom 1161 235 3 0 0 0 - - -;
#X floatatom 1188 235 3 0 0 0 - - -;
#X floatatom 1215 235 3 0 0 0 - - -;
#X obj 1134 209 unpack 0 0 0 0 0;
#X msg 902 22 status;
#X floatatom 1013 156 9 0 0 0 - - -;
#X obj 1194 182 tgl 15 0 empty empty empty 17 7 0 10 -4034 -1 -1 0
1;
#X floatatom 1073 182 9 0 0 0 - - -;
#X text 701 22 get status on right outlet:;
#X text 897 157 bytes received:;
#X text 912 181 total bytes received:;
#X text 1091 234 from:;
#X obj 1013 123 route received total from multicast;
#X msg 913 61 port 2085;
#X obj 900 91 net/udpreceive 2085;
#X obj 902 251 xnor_intlist2symbol;
#X obj 902 277 select PlayerDeath;
#X obj 499 35 hsl 128 15 0 1 0 0 empty empty empty -2 -8 0 10 -262144
-1 -1 7060 1;
#X floatatom 496 59 5 0 0 0 - - -;
#X obj 496 78 s death_flash_value;
#X msg 496 11 0.8;
#X obj 941 305 r death_flash_value;
#X obj 902 332 float 1;
#X msg 902 430 \$1 50;
#X obj 902 459 line;
#X obj 901 513 s led_cmd;
#X obj 902 304 bng 15 250 50 0 empty empty empty 17 7 0 10 -262144
-1 -1;
#X obj 902 357 t f b;
#X msg 929 401 0;
#X obj 929 380 delay 1000;
#X msg 902 485 2 set 0 0 \$1;
#X connect 0 0 1 0;
#X connect 0 1 1 1;
#X connect 0 2 1 2;
#X connect 1 0 3 0;
#X connect 2 0 4 0;
#X connect 3 0 2 0;
#X connect 4 0 6 0;
#X connect 4 0 20 0;
#X connect 5 0 17 0;
#X connect 5 0 31 0;
#X connect 6 0 21 0;
#X connect 6 1 7 0;
#X connect 6 1 22 0;
#X connect 7 0 5 0;
#X connect 8 0 36 0;
#X connect 11 0 15 0;
#X connect 12 0 13 0;
#X connect 13 0 16 0;
#X connect 13 1 11 1;
#X connect 14 0 11 2;
#X connect 15 0 10 0;
#X connect 16 0 11 0;
#X connect 17 0 19 0;
#X connect 18 0 14 0;
#X connect 19 0 18 0;
#X connect 21 0 5 0;
#X connect 22 0 8 0;
#X connect 24 0 25 0;
#X connect 25 0 23 0;
#X connect 26 0 27 0;
#X connect 27 0 30 0;
#X connect 28 0 26 0;
#X connect 29 0 37 0;
#X connect 29 0 28 0;
#X connect 29 0 59 0;
#X connect 31 0 32 0;
#X connect 32 0 12 0;
#X connect 33 0 31 1;
#X connect 34 0 12 0;
#X connect 35 0 36 1;
#X connect 36 0 34 0;
#X connect 37 0 24 0;
#X connect 42 0 38 0;
#X connect 42 1 39 0;
#X connect 42 2 40 0;
#X connect 42 3 41 0;
#X connect 43 0 53 0;
#X connect 51 0 44 0;
#X connect 51 1 46 0;
#X connect 51 2 42 0;
#X connect 51 3 45 0;
#X connect 52 0 53 0;
#X connect 53 0 54 0;
#X connect 53 1 51 0;
#X connect 54 0 55 0;
#X connect 55 0 65 0;
#X connect 56 0 57 0;
#X connect 57 0 58 0;
#X connect 59 0 56 0;
#X connect 60 0 61 1;
#X connect 61 0 66 0;
#X connect 62 0 63 0;
#X connect 63 0 69 0;
#X connect 65 0 61 0;
#X connect 66 0 62 0;
#X connect 66 1 68 0;
#X connect 67 0 62 0;
#X connect 68 0 67 0;
#X connect 69 0 64 0;
