#N canvas 520 -10 1175 969 10;
#X obj 17 -26 openpanel;
#X obj 17 -46 bng 15 250 50 0 empty empty select_audio_file 0 -6 0
8 -262144 -1 -1;
#X floatatom 17 70 10 0 0 0 - - -;
#X obj 28 750 hsl 501 100 0 1 0 0 \$0-playpos-s \$0-playpos-r empty
-2 -6 0 8 -233017 -1 -355 0 1;
#N canvas 0 0 450 300 (subpatch) 0;
#X array audio 6.66726e+06 float 2;
#X coords 0 1 6.66726e+06 -1 500 100 1;
#X restore 28 750 graph;
#X obj 17 454 tabread4~ audio;
#X obj 17 516 dac~;
#X obj 17 89 value a_len;
#X obj 105 89 value a_sf;
#X obj 105 45 loadbang;
#X obj 187 45 loadbang;
#X obj 187 89 value v_fr;
#N canvas 839 239 1278 973 gemwin 0;
#X obj 132 136 gemwin;
#X obj 67 89 outlet;
#X obj 67 10 inlet;
#X msg 67 70 set destroy;
#X msg 132 112 create \, 1;
#X msg 198 112 destroy;
#X msg 156 71 set create;
#X obj 67 41 route create;
#X msg 269 105 fullscreen 1;
#X obj 265 58 loadbang;
#X connect 2 0 7 0;
#X connect 3 0 1 0;
#X connect 4 0 0 0;
#X connect 5 0 0 0;
#X connect 6 0 1 0;
#X connect 7 0 3 0;
#X connect 7 0 4 0;
#X connect 7 1 6 0;
#X connect 7 1 5 0;
#X connect 8 0 0 0;
#X connect 9 0 8 0;
#X restore 292 -24 pd gemwin;
#X msg 292 -44 create;
#X obj 286 256 gemhead;
#X obj 436 599 pix_texture;
#X obj 420 -46 bng 15 250 50 0 empty empty select_video_file 0 -6 0
8 -262144 -1 -1;
#X floatatom 463 416 5 0 10000 1 frame# - -;
#X obj 420 -26 openpanel;
#X msg 420 -4 open \$1;
#X obj 420 454 pix_film;
#X obj 17 262 line~;
#X msg 42 240 0;
#X obj 129 417 snapshot~;
#X obj 286 316 t a b;
#X obj 129 476 s \$0-playpos-r;
#X obj 129 454 expr $f1/a_len;
#X obj 269 45 loadbang;
#X obj 269 89 value a_ps;
#X obj 17 213 pack f f;
#X obj 17 136 bng 15 250 50 0 empty empty PLAY 0 -6 0 8 -24198 -1 -1
;
#X obj 17 155 t b b;
#X obj 17 177 expr a_len \; a_len/a_sf/a_ps*1000;
#X text 96 27 audio sfreq;
#X text 176 27 video frate;
#X text 266 27 av playspeed;
#X obj 463 331 f;
#X obj 229 454 expr int($f1/a_sf*v_fr+0.5);
#X obj 62 136 bng 15 250 50 0 empty empty STOP 0 -6 0 8 -258699 -1
-1;
#X obj 18 352 +~;
#X obj 169 229 +~ 1;
#X obj 170 279 *~;
#X obj 183 136 tgl 15 0 empty empty SCRATCH 0 -6 0 8 -262144 -1 -1
0 1;
#X obj 239 136 bng 15 250 50 0 empty empty WHOLE_FILE 0 -6 0 8 -262144
-1 -1;
#X obj 239 156 expr a_len/2;
#X floatatom 239 178 10 0 0 0 - - -;
#X floatatom 214 178 3 0 0 0 - - -;
#X obj 169 251 *~ 10000;
#X obj 169 207 osc~ 1;
#X obj 203 -32 tgl 15 0 empty empty empty 0 -6 0 8 -262144 -1 -1 0
1;
#X msg 222 -41 \; pd dsp \$1;
#X text 294 -61 gemwin;
#X text 232 -63 audio;
#X msg 105 67 48000;
#X msg 187 67 29.97;
#X obj 594 480 cnv 15 160 150 empty empty empty 20 12 0 14 -24198 -66577
0;
#X obj 633 525 cnv 15 100 40 empty empty empty 20 12 0 14 -233017 -66577
0;
#X floatatom 649 524 3 -1 2 0 - - -;
#X floatatom 672 524 3 -1 2 0 - - -;
#X floatatom 695 524 3 -1 2 0 - - -;
#X floatatom 649 538 3 -1 2 0 - - -;
#X floatatom 672 538 3 -1 2 0 - - -;
#X floatatom 695 538 3 -1 2 0 - - -;
#X floatatom 649 552 3 -1 2 0 - - -;
#X floatatom 672 552 3 -1 2 0 - - -;
#X floatatom 695 552 3 -1 2 0 - - -;
#N canvas 0 0 450 469 pack 0;
#X obj 69 169 pack 0 0 0 0 0 0 0 0 0;
#X obj 69 139 t b f;
#X obj 106 139 t b f;
#X obj 143 139 t b f;
#X obj 180 139 t b f;
#X obj 217 139 t b f;
#X obj 254 139 t b f;
#X obj 291 139 t b f;
#X obj 328 139 t b f;
#X obj 32 111 inlet;
#X obj 69 111 inlet;
#X obj 106 111 inlet;
#X obj 143 111 inlet;
#X obj 180 111 inlet;
#X obj 217 111 inlet;
#X obj 254 111 inlet;
#X obj 291 111 inlet;
#X obj 328 111 inlet;
#X obj 61 349 outlet;
#X obj 274 355 outlet;
#X obj 71 190 t l l;
#X obj 257 232 unpack 0 0 0 0 0 0 0 0 0;
#X obj 399 256 +;
#X obj 358 256 +;
#X obj 318 256 +;
#X obj 277 256 +;
#X obj 379 286 +;
#X obj 298 286 +;
#X obj 349 316 +;
#X obj 268 316 +;
#X obj 58 294 select 0;
#X msg 48 323 1;
#X obj 132 391 /;
#X msg 132 365 1 \$1;
#X connect 0 0 20 0;
#X connect 1 0 0 0;
#X connect 1 1 0 1;
#X connect 2 0 0 0;
#X connect 2 1 0 2;
#X connect 3 0 0 0;
#X connect 3 1 0 3;
#X connect 4 0 0 0;
#X connect 4 1 0 4;
#X connect 5 0 0 0;
#X connect 5 1 0 5;
#X connect 6 0 0 0;
#X connect 6 1 0 6;
#X connect 7 0 0 0;
#X connect 7 1 0 7;
#X connect 8 0 0 0;
#X connect 8 1 0 8;
#X connect 9 0 0 0;
#X connect 10 0 1 0;
#X connect 11 0 2 0;
#X connect 12 0 3 0;
#X connect 13 0 4 0;
#X connect 14 0 5 0;
#X connect 15 0 6 0;
#X connect 16 0 7 0;
#X connect 17 0 8 0;
#X connect 20 0 21 0;
#X connect 20 1 19 0;
#X connect 21 0 29 0;
#X connect 21 1 25 0;
#X connect 21 2 25 1;
#X connect 21 3 24 0;
#X connect 21 4 24 1;
#X connect 21 5 23 0;
#X connect 21 6 23 1;
#X connect 21 7 22 0;
#X connect 21 8 22 1;
#X connect 22 0 26 1;
#X connect 23 0 26 0;
#X connect 24 0 27 1;
#X connect 25 0 27 0;
#X connect 26 0 28 1;
#X connect 27 0 28 0;
#X connect 28 0 29 1;
#X connect 29 0 30 0;
#X connect 30 0 31 0;
#X connect 30 1 33 0;
#X connect 31 0 18 0;
#X connect 32 0 18 0;
#X connect 33 0 32 0;
#X restore 628 566 pd pack 9 . . .;
#X obj 595 608 pix_convolve 3 3;
#X floatatom 628 591 5 0 0 1 scale - -;
#N canvas 411 476 605 305 unpack 0;
#X obj 60 270 outlet;
#X obj 111 270 outlet;
#X obj 164 270 outlet;
#X obj 215 270 outlet;
#X obj 266 270 outlet;
#X obj 317 270 outlet;
#X obj 370 270 outlet;
#X obj 421 270 outlet;
#X obj 471 271 outlet;
#X obj 179 173 unpack 0 0 0 0 0 0 0 0 0;
#X obj 130 13 inlet;
#X obj 130 40 route edge1 edge2 smooth none;
#X msg 130 124 -1 -1 -1 -1 8 -1 -1 -1 -1;
#X msg 179 102 -1 -4 -1 -4 20 -4 -1 -4 -1;
#X msg 229 82 1 2 1 2 4 2 1 2 1;
#X msg 278 62 0 0 0 0 1 0 0 0 0;
#X connect 9 0 0 0;
#X connect 9 1 1 0;
#X connect 9 2 2 0;
#X connect 9 3 3 0;
#X connect 9 4 4 0;
#X connect 9 5 5 0;
#X connect 9 6 6 0;
#X connect 9 7 7 0;
#X connect 9 8 8 0;
#X connect 10 0 11 0;
#X connect 11 0 12 0;
#X connect 11 1 13 0;
#X connect 11 2 14 0;
#X connect 11 3 15 0;
#X connect 12 0 9 0;
#X connect 13 0 9 0;
#X connect 14 0 9 0;
#X connect 15 0 9 0;
#X restore 617 507 pd unpack 9 . . .;
#X msg 603 484 none;
#X msg 684 484 edge1;
#X msg 726 484 edge2;
#X msg 637 484 smooth;
#X obj 284 288 spigot 1;
#X obj 334 266 tgl 15 0 empty empty empty 17 7 0 10 -262144 -1 -1 0
1;
#X obj 591 407 pix_duotone;
#X obj 498 324 pack 0 0 0;
#X obj 496 147 vsl 15 128 0 1 0 0 empty empty empty 0 -9 0 10 -262144
-1 -1 0 1;
#X obj 534 147 vsl 15 128 0 1 0 0 empty empty empty 0 -9 0 10 -262144
-1 -1 0 1;
#X obj 515 147 vsl 15 128 0 1 0 0 empty empty empty 0 -9 0 10 -262144
-1 -1 0 1;
#X obj 516 293 t b f;
#X obj 555 293 t b f;
#X obj 597 326 pack 0 0 0;
#X obj 595 149 vsl 15 128 0 1 0 0 empty empty empty 0 -9 0 10 -262144
-1 -1 0 1;
#X obj 633 149 vsl 15 128 0 1 0 0 empty empty empty 0 -9 0 10 -262144
-1 -1 0 1;
#X obj 614 149 vsl 15 128 0 1 0 0 empty empty empty 0 -9 0 10 -262144
-1 -1 0 1;
#X obj 615 295 t b f;
#X obj 654 295 t b f;
#X obj 698 327 pack 0 0 0;
#X obj 696 150 vsl 15 128 0 1 0 0 empty empty empty 0 -9 0 10 -262144
-1 -1 0 1;
#X obj 734 150 vsl 15 128 0 1 0 0 empty empty empty 0 -9 0 10 -262144
-1 -1 0 1;
#X obj 715 150 vsl 15 128 0 1 0 0 empty empty empty 0 -9 0 10 -262144
-1 -1 0 1;
#X obj 716 296 t b f;
#X obj 755 296 t b f;
#X msg 269 67 1;
#X obj 17 18 soundfiler;
#X msg 17 -4 read -resize -maxsize 4e+07 \$1 audio;
#X obj 436 621 rectangle 5 4;
#X connect 0 0 97 0;
#X connect 1 0 0 0;
#X connect 2 0 7 0;
#X connect 5 0 6 0;
#X connect 5 0 6 1;
#X connect 9 0 53 0;
#X connect 10 0 54 0;
#X connect 12 0 13 0;
#X connect 13 0 12 0;
#X connect 14 0 74 0;
#X connect 15 0 98 0;
#X connect 16 0 18 0;
#X connect 17 0 20 1;
#X connect 18 0 19 0;
#X connect 19 0 20 0;
#X connect 20 0 67 0;
#X connect 21 0 39 0;
#X connect 22 0 21 0;
#X connect 23 0 26 0;
#X connect 23 0 37 0;
#X connect 24 0 20 0;
#X connect 24 1 23 0;
#X connect 26 0 25 0;
#X connect 27 0 95 0;
#X connect 29 0 21 0;
#X connect 30 0 31 0;
#X connect 31 0 32 0;
#X connect 31 1 22 0;
#X connect 32 0 29 0;
#X connect 32 1 29 1;
#X connect 36 0 17 0;
#X connect 37 0 36 0;
#X connect 38 0 22 0;
#X connect 39 0 5 0;
#X connect 39 0 23 0;
#X connect 40 0 47 0;
#X connect 41 0 39 1;
#X connect 42 0 41 1;
#X connect 43 0 44 0;
#X connect 44 0 45 0;
#X connect 45 0 47 1;
#X connect 46 0 48 0;
#X connect 47 0 41 0;
#X connect 48 0 40 0;
#X connect 49 0 50 0;
#X connect 53 0 8 0;
#X connect 54 0 11 0;
#X connect 57 0 66 0;
#X connect 58 0 66 1;
#X connect 59 0 66 2;
#X connect 60 0 66 3;
#X connect 61 0 66 4;
#X connect 62 0 66 5;
#X connect 63 0 66 6;
#X connect 64 0 66 7;
#X connect 65 0 66 8;
#X connect 66 0 68 0;
#X connect 66 1 67 2;
#X connect 67 0 15 0;
#X connect 68 0 67 1;
#X connect 69 0 57 0;
#X connect 69 1 58 0;
#X connect 69 2 59 0;
#X connect 69 3 60 0;
#X connect 69 4 61 0;
#X connect 69 5 62 0;
#X connect 69 6 63 0;
#X connect 69 7 64 0;
#X connect 69 8 65 0;
#X connect 70 0 69 0;
#X connect 71 0 69 0;
#X connect 72 0 69 0;
#X connect 73 0 69 0;
#X connect 74 0 24 0;
#X connect 75 0 74 1;
#X connect 77 0 76 1;
#X connect 78 0 77 0;
#X connect 79 0 82 0;
#X connect 80 0 81 0;
#X connect 81 0 77 0;
#X connect 81 1 77 1;
#X connect 82 0 77 0;
#X connect 82 1 77 2;
#X connect 83 0 76 2;
#X connect 84 0 83 0;
#X connect 85 0 88 0;
#X connect 86 0 87 0;
#X connect 87 0 83 0;
#X connect 87 1 83 1;
#X connect 88 0 83 0;
#X connect 88 1 83 2;
#X connect 89 0 76 3;
#X connect 90 0 89 0;
#X connect 91 0 94 0;
#X connect 92 0 93 0;
#X connect 93 0 89 0;
#X connect 93 1 89 1;
#X connect 94 0 89 0;
#X connect 94 1 89 2;
#X connect 95 0 28 0;
#X connect 96 0 2 0;
#X connect 97 0 96 0;
