#N canvas 724 362 683 640 10;
#X obj 74 27 inlet;
#X obj 97 89 > \$1;
#X obj 74 164 spigot;
#X obj 74 65 t f f;
#X obj 97 112 t f f;
#X obj 131 165 sel 0;
#X obj 131 189 f \$1;
#X obj 74 226 f;
#X obj 74 350 spigot;
#X obj 74 251 t f f;
#X obj 97 298 t f f;
#X obj 131 351 sel 0;
#X obj 74 412 f;
#X obj 97 275 < \$2;
#X obj 74 442 outlet;
#X obj 131 375 f \$2;
#X text 176 27 clamp input numbers between \$1 and \$2;
#X connect 0 0 3 0;
#X connect 1 0 4 0;
#X connect 2 0 7 0;
#X connect 3 0 2 0;
#X connect 3 1 1 0;
#X connect 4 0 5 0;
#X connect 4 1 2 1;
#X connect 5 0 6 0;
#X connect 6 0 7 0;
#X connect 7 0 9 0;
#X connect 8 0 12 0;
#X connect 9 0 8 0;
#X connect 9 1 13 0;
#X connect 10 0 11 0;
#X connect 10 1 8 1;
#X connect 11 0 15 0;
#X connect 12 0 14 0;
#X connect 13 0 10 0;
#X connect 15 0 12 0;
