#N canvas 376 296 973 591 10;
#X obj -381 118 list-drip;
#X msg -319 226 set \$1%%c;
#X obj -353 194 makefilename %c;
#X msg -315 119 set %c%%c;
#X msg -273 307 set \$1;
#X obj -273 331 makefilename;
#X obj -400 73 t a b;
#X obj -306 359 symbol;
#X obj -400 30 inlet;
#X obj -300 284 t a a;
#X obj -306 392 outlet;
#X connect 0 0 2 0;
#X connect 0 1 7 0;
#X connect 1 0 2 0;
#X connect 2 0 1 0;
#X connect 2 0 9 0;
#X connect 3 0 2 0;
#X connect 4 0 5 0;
#X connect 5 0 7 1;
#X connect 6 0 0 0;
#X connect 6 1 3 0;
#X connect 7 0 10 0;
#X connect 8 0 6 0;
#X connect 9 0 5 0;
#X connect 9 1 4 0;
